<svg width="209" height="48" viewBox="0 0 209 48" fill="none" xmlns="http://www.w3.org/2000/svg">
<path fill-rule="evenodd" clip-rule="evenodd" d="M14.1805 0C17.7425 0 20.9992 1.31069 23.4898 3.47288C25.9804 1.31069 29.2372 0 32.7991 0C40.6311 0 46.9797 6.32539 46.9797 14.1257C46.9797 21.926 40.6311 28.2544 32.7991 28.2544C29.2372 28.2544 25.9804 26.9437 23.4898 24.7815C20.9992 26.9437 17.7425 28.2544 14.1805 28.2544C6.34851 28.2544 0.00292969 21.929 0.00292969 14.1257C0.00292969 6.32235 6.35156 0 14.1805 0ZM23.4898 4.10238C21.0999 6.56867 19.5982 10.145 19.5982 14.1257C19.5982 18.1064 21.103 21.6827 23.4898 24.149C25.8797 21.6827 27.3814 18.1064 27.3814 14.1257C27.3814 10.145 25.8767 6.56867 23.4898 4.10238ZM30.5771 5.18195C28.6481 6.39229 27.2318 8.04967 27.6897 9.78003C28.761 13.8338 29.6492 16.5829 25.5043 23.6685C33.8918 17.8844 33.3668 8.667 30.5771 5.18195ZM36.9532 8.04055C34.9326 8.64876 33.8582 9.52154 33.5438 10.6559C32.6801 13.776 34.664 18.8424 25.5684 24.5443C35.2165 22.224 38.4915 14.5819 36.9562 8.04055H36.9532ZM16.4056 5.18195C13.6189 8.667 13.0909 17.8844 21.4784 23.6685C17.3365 16.5829 18.2217 13.8338 19.293 9.78003C19.7508 8.04967 18.3346 6.39229 16.4056 5.18195ZM10.0295 8.04055C8.49422 14.5819 11.7693 22.224 21.4174 24.5443C12.3217 18.8424 14.3057 13.7729 13.4419 10.6559C13.1275 9.52154 12.0531 8.64876 10.0325 8.04055H10.0295Z" fill="#00AC94"/>
<path fill-rule="evenodd" clip-rule="evenodd" d="M7.26747 33.9169C11.2567 33.9169 14.4951 37.0461 14.5196 40.9143V41.8479H14.4616L12.4959 41.851L2.02985 41.8479C2.46327 44.2717 4.6395 46.1145 7.26137 46.1145C9.0866 46.1145 10.6982 45.2205 11.6535 43.8581H13.8725C12.734 46.3 10.2007 48 7.26137 48C3.25685 48 0.00927734 44.8464 0.00927734 40.96C0.00927734 37.0735 3.25685 33.9169 7.26137 33.9169H7.26747ZM12.4532 39.8378C11.9252 37.5296 9.80387 35.8054 7.26747 35.8054C4.73107 35.8054 2.60977 37.5296 2.08174 39.8378H12.4502H12.4532Z" fill="#00AC94"/>
<path fill-rule="evenodd" clip-rule="evenodd" d="M39.7127 33.9169C43.7172 33.9169 46.9648 37.0704 46.9648 40.96C46.9648 44.8495 43.7172 48 39.7127 48C35.7081 48 32.4575 44.8464 32.4575 40.96C32.4575 37.0735 35.7051 33.9169 39.7127 33.9169ZM39.7127 35.8023C36.7795 35.8023 34.4018 38.1105 34.4018 40.9569C34.4018 43.8033 36.7795 46.1115 39.7127 46.1115C42.6458 46.1115 45.0235 43.8033 45.0235 40.9569C45.0235 38.1105 42.6458 35.8023 39.7127 35.8023Z" fill="#00AC94"/>
<path fill-rule="evenodd" clip-rule="evenodd" d="M14.3058 48C17.9105 43.9098 18.8048 38.0101 14.8888 33.9138L17.3824 33.926C19.052 35.4344 20.6697 36.9245 22.2751 38.4176V32.0406H0V30.1338H46.9677V32.0406H24.7078V40.6893C25.5777 41.5074 26.4506 42.3315 27.3327 43.1647C27.1831 40.0172 27.8485 36.9245 30.0217 33.9412L32.668 33.9138C29.0633 38.0041 28.169 43.9007 32.085 48L29.5913 47.9878C27.9248 46.4795 26.3102 44.9833 24.7078 43.481V47.9878H22.2782V41.1941C21.4083 40.373 20.5354 39.5459 19.6533 38.7096C19.8028 41.8571 19.1283 44.9894 16.9551 47.9726L14.3088 48H14.3058Z" fill="#00AC94"/>
<path d="M80.5564 27.9142H69.9958V25.5317H80.6534C80.4926 20.4004 79.6007 16.6344 77.9777 14.2367C76.3546 11.839 74.1672 10.6402 71.4186 10.6402C68.67 10.6402 66.4008 11.6937 64.5108 13.8038C62.6207 15.9139 61.3799 18.8837 60.7853 22.7193H58.5676L59.1713 8.45145H60.9794L62.6177 11.9874C65.5908 9.59881 68.7671 8.40302 72.1407 8.40302C76.7854 8.40302 80.7991 10.0499 84.1847 13.3436C87.5674 16.6374 89.2602 21.1693 89.2602 26.9394C89.2602 32.7095 87.5977 37.0841 84.2697 40.4898C80.9416 43.8956 76.8916 45.6 72.1164 45.6C68.033 45.6 64.7352 44.3436 62.2203 41.834C59.7053 39.3243 58.2369 36.191 57.8213 32.4371H59.9904C60.6184 36.0608 61.932 38.7219 63.9313 40.4141C65.9336 42.1064 68.212 42.9511 70.7664 42.9511C77.0979 42.9511 80.3622 37.9378 80.5564 27.9142Z" fill="#00AC94"/>
<path d="M94.3477 9.29004H110.863V11.5273H108.427C107.736 11.5273 107.223 11.6786 106.883 11.9844C106.546 12.2901 106.377 12.6988 106.377 13.2105V24.8809H119.977V13.8129C119.977 12.9622 119.795 12.3689 119.434 12.0328C119.073 11.6968 118.466 11.5273 117.614 11.5273H115.542V9.29004H132.082V11.5273H129.864C129.012 11.5273 128.408 11.6877 128.056 12.0086C127.701 12.3295 127.525 12.826 127.525 13.5011V40.3748C127.525 41.1619 127.707 41.7341 128.068 42.0943C128.429 42.4546 128.939 42.6362 129.6 42.6362H132.085V44.8734H115.545V42.6362H118.054C118.745 42.6362 119.24 42.4849 119.537 42.1791C119.834 41.8733 119.983 41.3617 119.983 40.6382V27.8386H106.383V40.6382C106.383 41.3284 106.528 41.834 106.816 42.1549C107.105 42.4758 107.499 42.6362 107.997 42.6362H110.867V44.8734H94.3507V42.6362H97.0022C97.612 42.6362 98.058 42.4788 98.3401 42.167C98.6222 41.8552 98.7618 41.3466 98.7618 40.6382V13.8099C98.7618 12.9774 98.5767 12.387 98.2066 12.0419C97.8365 11.6968 97.2419 11.5242 96.4228 11.5242H94.3507V9.28702L94.3477 9.29004Z" fill="#00AC94"/>
<path d="M137.073 9.29004H168.248L169.042 22.8132H166.849C166.333 19.9251 165.669 17.6728 164.847 16.0531C164.028 14.4335 163.09 13.2831 162.037 12.5989C160.985 11.9178 159.832 11.5757 158.576 11.5757C157.854 11.5757 157.323 11.724 156.983 12.0207C156.646 12.3174 156.477 12.7473 156.477 13.3073V40.8319C156.477 41.3617 156.64 41.7946 156.971 42.1307C157.299 42.4667 157.699 42.6362 158.163 42.6362H162.213V44.8734H143.14V42.6362H146.999C147.578 42.6362 148.037 42.4728 148.373 42.1428C148.71 41.8158 148.88 41.3769 148.88 40.8319V13.4526C148.88 12.8108 148.707 12.3386 148.361 12.0328C148.015 11.7271 147.472 11.5757 146.735 11.5757C142.636 11.5757 139.864 15.3205 138.417 22.8102H136.296L137.066 9.28702L137.073 9.29004Z" fill="#00AC94"/>
<path d="M190.697 8.40002C194.055 8.40002 197.156 9.20833 199.993 10.828C202.829 12.4476 205.041 14.6545 206.624 17.4518C208.208 20.249 209 23.4035 209 26.9122C209 32.2494 207.252 36.6996 203.754 40.2568C200.259 43.8139 195.921 45.594 190.746 45.594C187.305 45.594 184.223 44.7857 181.499 43.166C178.774 41.5464 176.623 39.3637 175.049 36.6149C173.474 33.866 172.686 30.6722 172.686 27.0333C172.686 21.6325 174.415 17.1763 177.87 13.6646C181.326 10.1529 185.603 8.40002 190.697 8.40002ZM190.843 10.7099C188.928 10.7099 187.269 11.2336 185.864 12.2841C184.457 13.3346 183.34 15.0299 182.512 17.37C181.684 19.7102 181.271 22.9161 181.271 26.9879C181.271 31.2686 181.653 34.5109 182.415 36.7148C183.176 38.9187 184.293 40.5504 185.755 41.607C187.217 42.6635 188.922 43.1933 190.867 43.1933C193.743 43.1933 196.043 41.9642 197.763 39.5029C199.483 37.0417 200.341 32.7671 200.341 26.6761C200.341 22.4136 199.971 19.2107 199.231 17.0703C198.491 14.93 197.39 13.3346 195.927 12.2871C194.465 11.2366 192.769 10.7129 190.84 10.7129L190.843 10.7099Z" fill="#00AC94"/>
</svg>
